<svg preserveAspectRatio="none" overflow="visible" style="display: block;" width="47.8333" height="47.8333" viewBox="0 0 47.8333 47.8333" fill="none" xmlns="http://www.w3.org/2000/svg">
<g id="cardiology">
<mask id="mask0_0_4" style="mask-type:alpha" maskUnits="userSpaceOnUse" x="0" y="0" width="48" height="48">
<rect id="Bounding box" width="47.8333" height="47.8333" fill="#D9D9D9"/>
</mask>
<g mask="url(#mask0_0_4)">
<path id="cardiology_2" d="M14.9478 7.9723C16.7006 7.9723 18.3449 8.42074 19.8806 9.31762C21.4162 10.2145 22.7615 11.5189 23.9165 13.231C25.0715 11.5189 26.4168 10.2145 27.9524 9.31762C29.4881 8.42074 31.1324 7.9723 32.8853 7.9723C35.4201 7.9723 37.5485 8.83347 39.2705 10.5558C40.9928 12.2778 41.854 14.4062 41.854 16.9411C41.854 17.1583 41.8457 17.3628 41.8291 17.5544C41.8125 17.7461 41.7914 17.9505 41.7658 18.1678H39.7728C39.806 17.9505 39.8291 17.7461 39.842 17.5544C39.8546 17.3628 39.8609 17.1583 39.8609 16.9411C39.8609 14.948 39.1966 13.2871 37.8679 11.9584C36.5392 10.6297 34.8783 9.96536 32.8853 9.96536C31.2984 9.96536 29.8344 10.4183 28.4931 11.3241C27.1514 12.23 25.9504 13.5937 24.8901 15.4154H22.9429C21.857 13.5681 20.6497 12.1979 19.321 11.3047C17.9923 10.4118 16.5346 9.96536 14.9478 9.96536C12.9803 9.96536 11.3257 10.6297 9.98405 11.9584C8.64272 13.2871 7.97206 14.948 7.97206 16.9411C7.97206 17.1583 7.97837 17.3628 7.99099 17.5544C8.00395 17.7461 8.02704 17.9505 8.06025 18.1678H6.0672C6.04162 17.9505 6.02053 17.7461 6.00392 17.5544C5.98731 17.3628 5.979 17.1583 5.979 16.9411C5.979 14.4062 6.84017 12.2778 8.5625 10.5558C10.2845 8.83347 12.4129 7.9723 14.9478 7.9723ZM13.1695 29.6657H15.9518C17.0147 30.721 18.2029 31.8659 19.5163 33.1003C20.8298 34.3343 22.2965 35.6911 23.9165 37.1706C25.5365 35.6911 27.0032 34.3343 28.3167 33.1003C29.6301 31.8659 30.8183 30.721 31.8813 29.6657H34.675C33.4895 30.8821 32.1417 32.2148 30.6316 33.6638C29.1215 35.1124 27.3866 36.726 25.4267 38.5044L23.9165 39.8687L22.4063 38.5044C20.4464 36.726 18.7135 35.1124 17.2074 33.6638C15.701 32.2148 14.355 30.8821 13.1695 29.6657ZM22.0231 30.8924C22.2251 30.8924 22.3943 30.8318 22.5308 30.7106C22.6677 30.589 22.777 30.4312 22.8587 30.2372L26.201 20.1987L28.8648 24.2082C29.0309 24.4228 29.225 24.5939 29.4472 24.7214C29.6695 24.8493 29.9211 24.9133 30.2021 24.9133H44.8436V22.9202H30.3899L26.7222 17.4164C26.6249 17.2706 26.4952 17.1613 26.3331 17.0885C26.171 17.0158 25.9966 16.9794 25.8099 16.9794C25.6079 16.9794 25.4322 17.04 25.2827 17.1613C25.1333 17.2829 25.0305 17.4406 24.9743 17.6346L21.632 27.6996L18.903 23.6253C18.7369 23.4107 18.5427 23.2396 18.3205 23.1121C18.0983 22.9842 17.8467 22.9202 17.5656 22.9202H2.98942V24.9133H17.3663L21.0724 30.4555C21.1697 30.6265 21.3059 30.7421 21.481 30.8023C21.6557 30.8624 21.8364 30.8924 22.0231 30.8924Z" fill="#4A5B39"/>
</g>
</g>
</svg>
