<svg width="41" height="41" viewBox="0 0 41 41" fill="none" xmlns="http://www.w3.org/2000/svg">
<g id="Group 11">
<path id="Vector" d="M20.2002 0.200012C14.8542 0.200012 9.83912 2.27763 6.05847 6.05829C2.27782 9.83894 0.200195 14.8528 0.200195 20.2C0.200195 25.5472 2.27782 30.5611 6.05847 34.3417C9.83912 38.1224 14.853 40.2 20.2002 40.2C25.5474 40.2 30.5638 38.1224 34.3445 34.3417C38.1252 30.5611 40.2028 25.546 40.2028 20.2C40.2028 17.9023 39.8153 15.6509 39.0533 13.505V13.5025C38.9181 13.1214 38.5165 12.9309 38.138 13.0648C37.7596 13.1987 37.5652 13.6041 37.6978 13.9826C38.4045 15.9727 38.7636 18.0658 38.7636 20.1974C38.7636 30.4285 30.4326 38.7622 20.2015 38.7622C9.97042 38.7622 1.63934 30.4285 1.63934 20.1974C1.63934 9.96638 9.97042 1.6353 20.2015 1.6353C23.4222 1.6353 26.5502 2.46171 29.3229 4.02829L29.9112 4.3604L27.7113 6.56289C27.5285 6.74568 27.459 7.00828 27.5247 7.25672C27.5916 7.50644 27.7821 7.69695 28.0331 7.76518L35.7991 9.84666C35.8635 9.8634 35.9252 9.87241 35.9857 9.87241C36.1737 9.87241 36.3565 9.79903 36.4942 9.6613C36.677 9.47851 36.7465 9.21591 36.6809 8.96747L34.5994 1.20149C34.5324 0.951766 34.3419 0.761253 34.0909 0.693029C33.8425 0.626092 33.5799 0.696891 33.3971 0.87968L30.9487 3.32545L30.6012 3.11435C27.4719 1.20407 23.8985 0.200012 20.2002 0.200012ZM33.5322 2.77709L34.965 8.13462L29.6074 6.70191L33.5322 2.77709Z" fill="#4A5B39" stroke="#4A5B39" stroke-width="0.4"/>
<path id="24/7" d="M10.2864 24.6143V23.6259L12.9084 21.0556C13.1591 20.8024 13.3681 20.5774 13.5353 20.3808C13.7025 20.1841 13.8278 19.9935 13.9114 19.8092C13.995 19.6248 14.0368 19.4281 14.0368 19.2191C14.0368 18.9807 13.9827 18.7766 13.8746 18.607C13.7664 18.4349 13.6176 18.3021 13.4283 18.2087C13.239 18.1153 13.0239 18.0686 12.783 18.0686C12.5347 18.0686 12.3171 18.1202 12.1303 18.2234C11.9434 18.3242 11.7984 18.4681 11.6951 18.6549C11.5943 18.8417 11.5439 19.0642 11.5439 19.3224H10.2421C10.2421 18.843 10.3515 18.4263 10.5704 18.0722C10.7892 17.7182 11.0903 17.4441 11.4738 17.2499C11.8598 17.0557 12.3024 16.9586 12.8014 16.9586C13.3079 16.9586 13.7529 17.0532 14.1364 17.2425C14.5199 17.4318 14.8174 17.6912 15.0288 18.0206C15.2427 18.3501 15.3496 18.7262 15.3496 19.1491C15.3496 19.4318 15.2956 19.7096 15.1874 19.9825C15.0792 20.2554 14.8887 20.5578 14.6158 20.8897C14.3453 21.2216 13.9655 21.6235 13.4763 22.0955L12.1745 23.4194V23.4711H15.464V24.6143H10.2864ZM16.4375 23.2129V22.125L19.6421 17.0618H20.5493V18.6107H19.9962L17.8388 22.0292V22.0882H22.3121V23.2129H16.4375ZM20.0404 24.6143V22.881L20.0552 22.3943V17.0618H21.3459V24.6143H20.0404ZM26.588 16.7078L24.1541 25.7501H22.9851L25.419 16.7078H26.588ZM27.7017 24.6143L30.9137 18.2566V18.205H27.1854V17.0618H32.3297V18.2308L29.1214 24.6143H27.7017Z" fill="#4A5B39"/>
</g>
</svg>
